Coordinates
version=1
nRows=17
nColumns=24
inDegrees=yes

Units are S.I. units (second, meters, Newtons, ...)
Angles are in degrees.

endheader
time	pelvis_tilt	pelvis_list	pelvis_rotation	pelvis_tx	pelvis_ty	pelvis_tz	hip_flexion_r	hip_adduction_r	hip_rotation_r	knee_angle_r	ankle_angle_r	subtalar_angle_r	mtp_angle_r	hip_flexion_l	hip_adduction_l	hip_rotation_l	knee_angle_l	ankle_angle_l	subtalar_angle_l	mtp_angle_l	lumbar_extension	lumbar_bending	lumbar_rotation
      1.33733333	      0.76809200	      9.25702512	     -5.21600620	      0.23305932	      1.00569744	      0.31355519	     16.90969353	    -12.56133075	     -1.21865443	    -73.50553349	    -10.33905013	    -15.73762523	      4.17443656	      7.64846677	     14.45687688	      3.61934833	    -11.64217696	      2.02950167	    -20.22419019	     -3.19678247	    -12.45260830	     -4.65204121	     -0.57420770
      1.34150000	      0.77682305	      9.08551887	     -5.20160448	      0.23802316	      1.00665188	      0.31341056	     17.48729480	    -12.30521196	     -1.22235890	    -73.30625919	     -9.69567341	    -15.84780286	      3.84646968	      7.04604130	     14.31062726	      3.79208892	    -11.13677461	      2.00150116	    -20.27335738	     -3.23561779	    -12.47338613	     -4.37945590	     -0.85489154
      1.34566667	      0.75288915	      8.86419203	     -5.19833778	      0.24295491	      1.00756656	      0.31332776	     18.07931868	    -11.96530360	     -1.20463030	    -73.03290556	     -9.11707477	    -15.94887329	      3.76864247	      6.49821363	     14.09645029	      3.88991327	    -10.67849443	      2.04401752	    -20.20544401	     -3.24463975	    -12.47541857	     -4.08219392	     -0.93920804
      1.34983333	      0.77310785	      8.69703973	     -5.16523100	      0.24791474	      1.00845921	      0.31316710	     18.60998919	    -11.71934128	     -1.23237626	    -72.72254605	     -8.49989822	    -15.98916094	      3.43750240	      5.87712387	     13.95384652	      4.08313034	    -10.16061797	      2.03338590	    -20.23394772	     -3.28436077	    -12.49954112	     -3.81529198	     -1.31195471
      1.35400000	      0.73941909	      8.48885216	     -5.14646736	      0.25288649	      1.00927809	      0.31307126	     19.17645366	    -11.40136393	     -1.24244660	    -72.33776071	     -7.95635518	    -16.09287927	      3.39020987	      5.33591120	     13.74831245	      4.16259137	     -9.69429652	      2.08799624	    -20.14819131	     -3.28959724	    -12.46025043	     -3.54295915	     -1.36583765
      1.35816667	      0.78496028	      8.29183862	     -5.10045001	      0.25781931	      1.01015319	      0.31290895	     19.63631490	    -11.12408717	     -1.29150910	    -71.90430095	     -7.37044890	    -16.09787265	      3.13845136	      4.69307427	     13.57027257	      4.35138492	     -9.19333877	      2.09181173	    -20.13148140	     -3.31938513	    -12.54720567	     -3.22369256	     -1.74031064
      1.36233333	      0.73777109	      8.07450107	     -5.06292534	      0.26274698	      1.01087106	      0.31279372	     20.18428021	    -10.79367384	     -1.31291415	    -71.41288689	     -6.84499300	    -16.14532531	      3.04665468	      4.17386626	     13.35286086	      4.45880326	     -8.74109720	      2.13919243	    -20.05391203	     -3.32958439	    -12.52392663	     -2.92058023	     -1.85227528
      1.36650000	      0.75440132	      7.89130377	     -5.01651985	      0.26771080	      1.01160049	      0.31264339	     20.64856570	    -10.53061159	     -1.36379208	    -70.87851261	     -6.29955193	    -16.14081661	      2.89345112	      3.57053003	     13.17868280	      4.58949175	     -8.25204820	      2.18585970	    -19.99181836	     -3.34596273	    -12.54003196	     -2.63533450	     -2.13070233
      1.37066667	      0.73608038	      7.69588423	     -4.96490293	      0.27264230	      1.01225355	      0.31253549	     21.13286183	    -10.23525826	     -1.40445805	    -70.29043005	     -5.74551458	    -16.19359688	      2.81545052	      3.02688060	     12.98162161	      4.68923858	     -7.80667731	      2.20369564	    -19.89454296	     -3.35464804	    -12.54620135	     -2.37056883	     -2.27187658
      1.37483333	      0.72731890	      7.53190264	     -4.90245620	      0.27759382	      1.01284887	      0.31237086	     21.59832540	     -9.99420703	     -1.45977852	    -69.66284893	     -5.21419471	    -16.18111910	      2.01321908	      2.44873079	     12.82555587	      4.87197785	     -7.30375010	      2.16408612	    -19.96645147	     -3.44145506	    -12.52117254	     -2.08571618	     -2.70324366
      1.37900000	      0.75416369	      7.33718202	     -4.85109963	      0.28253121	      1.01345810	      0.31225575	     22.00047399	     -9.71452577	     -1.51098762	    -68.97063031	     -4.68254741	    -16.14547353	      1.92650514	      1.85641321	     12.62850640	      4.95694771	     -6.85673923	      2.26985957	    -19.77360390	     -3.44708876	    -12.59090390	     -1.81998761	     -2.78494675
      1.38316667	      0.77144027	      7.16553120	     -4.79449357	      0.28747053	      1.01399760	      0.31213364	     22.40322596	     -9.46321938	     -1.56216992	    -68.23676367	     -4.15659189	    -16.11318253	      1.83687513	      1.27765783	     12.45452496	      5.04567283	     -6.40671656	      2.32512162	    -19.63972439	     -3.45348093	    -12.62879258	     -1.56802603	     -2.98840480
      1.38733333	      0.78247102	      6.98638355	     -4.73084405	      0.29240933	      1.01447815	      0.31202164	     22.79194754	     -9.20205826	     -1.61470280	    -67.45064394	     -3.64627863	    -16.07267624	      1.75210835	      0.70811411	     12.26957451	      5.14570606	     -5.96347037	      2.37684858	    -19.52163596	     -3.45823907	    -12.65757277	     -1.30777779	     -3.19606262
      1.39150000	      0.78871293	      6.81949724	     -4.66431840	      0.29735465	      1.01490123	      0.31190709	     23.17152060	     -8.95724059	     -1.66599091	    -66.61620867	     -3.14156241	    -16.01032472	      1.66421936	      0.14799237	     12.09585892	      5.25038654	     -5.52658511	      2.42733362	    -19.40672167	     -3.46221978	    -12.68220162	     -1.06108416	     -3.41563954
      1.39566667	      0.77692488	      6.66428532	     -4.59497584	      0.30229549	      1.01523246	      0.31181168	     23.55841738	     -8.72034311	     -1.70963990	    -65.74151803	     -2.63755469	    -15.97040442	      1.61976205	     -0.37800198	     11.92999795	      5.33214932	     -5.11474074	      2.45809957	    -19.28466452	     -3.46347042	    -12.68575141	     -0.84590305	     -3.55406446
      1.39983333	      0.79512182	      6.50350104	     -4.52513596	      0.30724486	      1.01556238	      0.31170465	     23.89220207	     -8.48783754	     -1.76031700	    -64.81250194	     -2.16017465	    -15.87393254	      1.56884635	     -0.94380590	     11.75970573	      5.43194026	     -4.68811784	      2.51255032	    -19.16645524	     -3.46346672	    -12.72457546	     -0.60657068	     -3.75474542
      1.40400000	      0.85195842	      6.36091894	     -4.46115422	      0.31220272	      1.01587804	      0.31159555	     24.17495186	     -8.28588507	     -1.80925569	    -63.84614545	     -1.71814705	    -15.75798895	      1.48753110	     -1.56052754	     11.61095131	      5.55342008	     -4.23775184	      2.58236555	    -19.05176406	     -3.46273698	    -12.80902502	     -0.37177435	     -4.03034079
